<mxfile host="app.diagrams.net" modified="2023-12-18T04:48:38.115Z" agent="Mozilla/5.0 (Macintosh; Intel Mac OS X 10_15_7) AppleWebKit/537.36 (KHTML, like Gecko) Chrome/119.0.0.0 Safari/537.36" version="22.1.11" etag="osldy3C9Xu492Pqt7fUL" type="github">
  <diagram name="第 1 页" id="q00qSJMkj0bL9lBDUXPD">
    <mxGraphModel>
      <root>
        <mxCell id="0" />
        <mxCell id="1" parent="0" />
      </root>
    </mxGraphModel>
  </diagram>
</mxfile>
